# xmcd CD database file
#
# Track frame offsets:
#	150
#	9395
#	20005
#	30053
#	43618
#	54313
#	65238
#	78223
#	87180
#	98978
#	109755
#	124420
#	135623
#	149998
#
# Disc length: 2130 seconds
#
# Revision: 0
# Processed by: cddbd v1.5.1PL2 Copyright (c) Steve Scherf et al.
# Submitted via: CDex 1.70beta1
#
DISCID=bc08500e
DTITLE=Frankie Laine - Frankie Laine and Friends
DYEAR=1900
DGENRE=Jazz
TTITLE0=Hambone with Jo Stafford
TTITLE1=Hey Good Lookin' with Jo Stafford
TTITLE2=Up Above My Head with Johnny Ray
TTITLE3=Way Down Yonder in New Orleans with Jo Stafford
TTITLE4=I Heard Angels Singing with The Four Lads
TTITLE5=Floating Down to Cotton with Jo Stafford
TTITLE6=Rain, Rain, Rain with The Four Lads
TTITLE7=Sugarbush with Doris Day
TTITLE8=In The Cool, Cool, Cool of the Evening with Jo Stafford
TTITLE9=Juba-Juba-Jubalee with The Four Lads
TTITLE10=Basin Street Blues with Jo Stafford
TTITLE11=How Lovely Cooks the Meat with Doris Day
TTITLE12=Ain't It A Pity and A Shame with The Four Lads
TTITLE13=High Society with Jo Stafford
EXTD=
EXTT0=
EXTT1=
EXTT2=
EXTT3=
EXTT4=
EXTT5=
EXTT6=
EXTT7=
EXTT8=
EXTT9=
EXTT10=
EXTT11=
EXTT12=
EXTT13=
PLAYORDER=
